<svg width="126" height="16" viewBox="0 0 126 16" fill="none" xmlns="http://www.w3.org/2000/svg">
<path d="M7.7 15.24C6.28667 15.24 5.07333 14.94 4.06 14.34C3.04667 13.7267 2.26667 12.88 1.72 11.8C1.17333 10.7067 0.9 9.44667 0.9 8.02C0.9 6.59333 1.17333 5.33333 1.72 4.24C2.26667 3.14667 3.04667 2.29333 4.06 1.68C5.07333 1.06667 6.28667 0.76 7.7 0.76C9.38 0.76 10.7533 1.18 11.82 2.02C12.9 2.84667 13.5733 4.01333 13.84 5.52H11.02C10.8467 4.76 10.4733 4.16667 9.9 3.74C9.34 3.3 8.59333 3.08 7.66 3.08C6.36667 3.08 5.35333 3.52 4.62 4.4C3.88667 5.28 3.52 6.48667 3.52 8.02C3.52 9.55333 3.88667 10.76 4.62 11.64C5.35333 12.5067 6.36667 12.94 7.66 12.94C8.59333 12.94 9.34 12.74 9.9 12.34C10.4733 11.9267 10.8467 11.36 11.02 10.64H13.84C13.5733 12.08 12.9 13.2067 11.82 14.02C10.7533 14.8333 9.38 15.24 7.7 15.24ZM16.0461 15V0.599999H18.6061V15H16.0461ZM22.6019 3.54C22.1352 3.54 21.7485 3.4 21.4419 3.12C21.1485 2.84 21.0019 2.48667 21.0019 2.06C21.0019 1.63333 21.1485 1.28667 21.4419 1.02C21.7485 0.739999 22.1352 0.599999 22.6019 0.599999C23.0685 0.599999 23.4485 0.739999 23.7419 1.02C24.0485 1.28667 24.2019 1.63333 24.2019 2.06C24.2019 2.48667 24.0485 2.84 23.7419 3.12C23.4485 3.4 23.0685 3.54 22.6019 3.54ZM21.3219 15V5.08H23.8819V15H21.3219ZM31.3739 15.24C30.3739 15.24 29.4872 15.0267 28.7139 14.6C27.9406 14.1733 27.3339 13.5733 26.8939 12.8C26.4539 12.0267 26.2339 11.1333 26.2339 10.12C26.2339 9.09333 26.4472 8.18 26.8739 7.38C27.3139 6.58 27.9139 5.96 28.6739 5.52C29.4472 5.06667 30.3539 4.84 31.3939 4.84C32.3672 4.84 33.2272 5.05333 33.9739 5.48C34.7206 5.90667 35.3006 6.49333 35.7139 7.24C36.1406 7.97333 36.3539 8.79333 36.3539 9.7C36.3539 9.84667 36.3472 10 36.3339 10.16C36.3339 10.32 36.3272 10.4867 36.3139 10.66H28.7739C28.8272 11.4333 29.0939 12.04 29.5739 12.48C30.0672 12.92 30.6606 13.14 31.3539 13.14C31.8739 13.14 32.3072 13.0267 32.6539 12.8C33.0139 12.56 33.2806 12.2533 33.4539 11.88H36.0539C35.8672 12.5067 35.5539 13.08 35.1139 13.6C34.6872 14.1067 34.1539 14.5067 33.5139 14.8C32.8872 15.0933 32.1739 15.24 31.3739 15.24ZM31.3939 6.92C30.7672 6.92 30.2139 7.1 29.7339 7.46C29.2539 7.80667 28.9472 8.34 28.8139 9.06H33.7539C33.7139 8.40667 33.4739 7.88667 33.0339 7.5C32.5939 7.11333 32.0472 6.92 31.3939 6.92ZM38.507 15V5.08H40.767L40.967 6.76C41.2737 6.17333 41.7137 5.70667 42.287 5.36C42.8737 5.01333 43.5604 4.84 44.347 4.84C45.5737 4.84 46.527 5.22667 47.207 6C47.887 6.77333 48.227 7.90667 48.227 9.4V15H45.667V9.64C45.667 8.78667 45.4937 8.13333 45.147 7.68C44.8004 7.22667 44.2604 7 43.527 7C42.807 7 42.2137 7.25333 41.747 7.76C41.2937 8.26667 41.067 8.97333 41.067 9.88V15H38.507ZM55.095 15C54.055 15 53.2217 14.7467 52.595 14.24C51.9683 13.7333 51.655 12.8333 51.655 11.54V7.22H49.955V5.08H51.655L51.955 2.42H54.215V5.08H56.895V7.22H54.215V11.56C54.215 12.04 54.315 12.3733 54.515 12.56C54.7283 12.7333 55.0883 12.82 55.595 12.82H56.835V15H55.095ZM106.814 15.14C106.347 15.14 105.961 14.9933 105.654 14.7C105.361 14.4067 105.214 14.0533 105.214 13.64C105.214 13.2133 105.361 12.8533 105.654 12.56C105.961 12.2667 106.347 12.12 106.814 12.12C107.281 12.12 107.661 12.2667 107.954 12.56C108.261 12.8533 108.414 13.2133 108.414 13.64C108.414 14.0533 108.261 14.4067 107.954 14.7C107.661 14.9933 107.281 15.14 106.814 15.14ZM111.899 3.54C111.432 3.54 111.045 3.4 110.739 3.12C110.445 2.84 110.299 2.48667 110.299 2.06C110.299 1.63333 110.445 1.28667 110.739 1.02C111.045 0.739999 111.432 0.599999 111.899 0.599999C112.365 0.599999 112.745 0.739999 113.039 1.02C113.345 1.28667 113.499 1.63333 113.499 2.06C113.499 2.48667 113.345 2.84 113.039 3.12C112.745 3.4 112.365 3.54 111.899 3.54ZM110.619 15V5.08H113.179V15H110.619ZM120.611 15.24C119.651 15.24 118.784 15.02 118.011 14.58C117.251 14.14 116.644 13.5333 116.191 12.76C115.751 11.9733 115.531 11.0667 115.531 10.04C115.531 9.01333 115.757 8.11333 116.211 7.34C116.664 6.55333 117.271 5.94 118.031 5.5C118.804 5.06 119.671 4.84 120.631 4.84C121.577 4.84 122.431 5.06 123.191 5.5C123.964 5.94 124.571 6.55333 125.011 7.34C125.464 8.11333 125.691 9.01333 125.691 10.04C125.691 11.0667 125.464 11.9733 125.011 12.76C124.571 13.5333 123.964 14.14 123.191 14.58C122.417 15.02 121.557 15.24 120.611 15.24ZM120.611 13.02C121.277 13.02 121.857 12.7733 122.351 12.28C122.844 11.7733 123.091 11.0267 123.091 10.04C123.091 9.05333 122.844 8.31333 122.351 7.82C121.857 7.31333 121.284 7.06 120.631 7.06C119.951 7.06 119.364 7.31333 118.871 7.82C118.391 8.31333 118.151 9.05333 118.151 10.04C118.151 11.0267 118.391 11.7733 118.871 12.28C119.364 12.7733 119.944 13.02 120.611 13.02Z" fill="#DEACF5"/>
<path d="M59.153 15V0.999999H64.773C66.2263 0.999999 67.333 1.34 68.093 2.02C68.8663 2.68667 69.253 3.54667 69.253 4.6C69.253 5.48 69.013 6.18667 68.533 6.72C68.0663 7.24 67.493 7.59333 66.813 7.78C67.613 7.94 68.273 8.34 68.793 8.98C69.313 9.60667 69.573 10.34 69.573 11.18C69.573 12.2867 69.173 13.2 68.373 13.92C67.573 14.64 66.4396 15 64.973 15H59.153ZM61.713 6.88H64.393C65.113 6.88 65.6663 6.71333 66.053 6.38C66.4396 6.04667 66.633 5.57333 66.633 4.96C66.633 4.37333 66.4396 3.91333 66.053 3.58C65.6796 3.23333 65.113 3.06 64.353 3.06H61.713V6.88ZM61.713 12.92H64.573C65.333 12.92 65.9196 12.7467 66.333 12.4C66.7596 12.04 66.973 11.54 66.973 10.9C66.973 10.2467 66.753 9.73333 66.313 9.36C65.873 8.98667 65.2796 8.8 64.533 8.8H61.713V12.92ZM75.1302 15.24C74.2768 15.24 73.5768 15.1067 73.0302 14.84C72.4835 14.56 72.0768 14.1933 71.8102 13.74C71.5435 13.2867 71.4102 12.7867 71.4102 12.24C71.4102 11.32 71.7702 10.5733 72.4902 10C73.2102 9.42667 74.2902 9.14 75.7302 9.14H78.2502V8.9C78.2502 8.22 78.0568 7.72 77.6702 7.4C77.2835 7.08 76.8035 6.92 76.2302 6.92C75.7102 6.92 75.2568 7.04667 74.8702 7.3C74.4835 7.54 74.2435 7.9 74.1502 8.38H71.6502C71.7168 7.66 71.9568 7.03333 72.3702 6.5C72.7968 5.96667 73.3435 5.56 74.0102 5.28C74.6768 4.98667 75.4235 4.84 76.2502 4.84C77.6635 4.84 78.7768 5.19333 79.5902 5.9C80.4035 6.60667 80.8102 7.60667 80.8102 8.9V15H78.6302L78.3902 13.4C78.0968 13.9333 77.6835 14.3733 77.1502 14.72C76.6302 15.0667 75.9568 15.24 75.1302 15.24ZM75.7102 13.24C76.4435 13.24 77.0102 13 77.4102 12.52C77.8235 12.04 78.0835 11.4467 78.1902 10.74H76.0102C75.3302 10.74 74.8435 10.8667 74.5502 11.12C74.2568 11.36 74.1102 11.66 74.1102 12.02C74.1102 12.4067 74.2568 12.7067 74.5502 12.92C74.8435 13.1333 75.2302 13.24 75.7102 13.24ZM87.3531 15.24C86.4731 15.24 85.6998 15.1 85.0331 14.82C84.3665 14.5267 83.8331 14.1267 83.4331 13.62C83.0331 13.1133 82.7931 12.5267 82.7131 11.86H85.2931C85.3731 12.2467 85.5865 12.58 85.9331 12.86C86.2931 13.1267 86.7531 13.26 87.3131 13.26C87.8731 13.26 88.2798 13.1467 88.5331 12.92C88.7998 12.6933 88.9331 12.4333 88.9331 12.14C88.9331 11.7133 88.7465 11.4267 88.3731 11.28C87.9998 11.12 87.4798 10.9667 86.8131 10.82C86.3865 10.7267 85.9531 10.6133 85.5131 10.48C85.0731 10.3467 84.6665 10.18 84.2931 9.98C83.9331 9.76667 83.6398 9.5 83.4131 9.18C83.1865 8.84667 83.0731 8.44 83.0731 7.96C83.0731 7.08 83.4198 6.34 84.1131 5.74C84.8198 5.14 85.8065 4.84 87.0731 4.84C88.2465 4.84 89.1798 5.11333 89.8731 5.66C90.5798 6.20667 90.9998 6.96 91.1331 7.92H88.7131C88.5665 7.18667 88.0131 6.82 87.0531 6.82C86.5731 6.82 86.1998 6.91333 85.9331 7.1C85.6798 7.28667 85.5531 7.52 85.5531 7.8C85.5531 8.09333 85.7465 8.32667 86.1331 8.5C86.5198 8.67333 87.0331 8.83333 87.6731 8.98C88.3665 9.14 88.9998 9.32 89.5731 9.52C90.1598 9.70667 90.6265 9.99333 90.9731 10.38C91.3198 10.7533 91.4931 11.2933 91.4931 12C91.5065 12.6133 91.3465 13.1667 91.0131 13.66C90.6798 14.1533 90.1998 14.54 89.5731 14.82C88.9465 15.1 88.2065 15.24 87.3531 15.24ZM98.5809 15.24C97.5809 15.24 96.6943 15.0267 95.9209 14.6C95.1476 14.1733 94.5409 13.5733 94.1009 12.8C93.6609 12.0267 93.4409 11.1333 93.4409 10.12C93.4409 9.09333 93.6543 8.18 94.0809 7.38C94.5209 6.58 95.1209 5.96 95.8809 5.52C96.6543 5.06667 97.5609 4.84 98.6009 4.84C99.5743 4.84 100.434 5.05333 101.181 5.48C101.928 5.90667 102.508 6.49333 102.921 7.24C103.348 7.97333 103.561 8.79333 103.561 9.7C103.561 9.84667 103.554 10 103.541 10.16C103.541 10.32 103.534 10.4867 103.521 10.66H95.9809C96.0343 11.4333 96.3009 12.04 96.7809 12.48C97.2743 12.92 97.8676 13.14 98.5609 13.14C99.0809 13.14 99.5143 13.0267 99.8609 12.8C100.221 12.56 100.488 12.2533 100.661 11.88H103.261C103.074 12.5067 102.761 13.08 102.321 13.6C101.894 14.1067 101.361 14.5067 100.721 14.8C100.094 15.0933 99.3809 15.24 98.5809 15.24ZM98.6009 6.92C97.9743 6.92 97.4209 7.1 96.9409 7.46C96.4609 7.80667 96.1543 8.34 96.0209 9.06H100.961C100.921 8.40667 100.681 7.88667 100.241 7.5C99.8009 7.11333 99.2543 6.92 98.6009 6.92Z" fill="white"/>
</svg>
